<?xml version="1.0" standalone="no"?>
<!DOCTYPE svg PUBLIC "-//W3C//DTD SVG 20010904//EN"
 "http://www.w3.org/TR/2001/REC-SVG-20010904/DTD/svg10.dtd">
<svg version="1.0" xmlns="http://www.w3.org/2000/svg"
 width="512.000000pt" height="512.000000pt" viewBox="0 0 512.000000 512.000000"
 preserveAspectRatio="xMidYMid meet">

<g transform="translate(0.000000,512.000000) scale(0.100000,-0.100000)"
fill="#000000" stroke="none">
<path d="M845 5030 c-216 -34 -423 -151 -561 -318 -67 -81 -147 -238 -175
-347 -32 -118 -32 -318 -1 -435 28 -104 86 -226 146 -308 l46 -62 -40 -100
c-116 -290 -165 -559 -165 -900 0 -341 49 -610 165 -900 l40 -100 -46 -62
c-60 -82 -118 -204 -146 -308 -31 -117 -31 -317 1 -435 47 -178 160 -355 299
-471 81 -67 238 -147 347 -175 117 -31 308 -31 430 -1 107 27 227 83 313 146
l62 46 97 -39 c293 -116 561 -166 903 -166 341 0 610 49 900 165 l100 40 62
-46 c82 -60 204 -118 308 -145 117 -31 318 -31 435 0 178 47 355 160 471 299
67 81 147 238 175 347 31 117 31 308 1 430 -27 107 -83 227 -146 313 l-45 61
43 113 c115 298 161 551 161 888 0 342 -50 610 -166 903 l-39 97 46 62 c63 86
119 206 146 313 30 122 30 313 -1 430 -28 109 -108 266 -175 347 -116 139
-293 252 -471 299 -118 32 -318 32 -435 1 -104 -28 -226 -86 -308 -146 l-62
-46 -100 40 c-292 116 -559 165 -905 165 -339 0 -605 -50 -898 -166 l-97 -39
-62 46 c-82 60 -204 118 -303 144 -92 24 -261 33 -350 20z m57 -190 c5 -70 22
-93 69 -93 47 0 69 32 69 100 l0 54 38 -6 c229 -38 426 -170 542 -366 43 -72
84 -186 95 -261 l7 -48 -50 0 c-62 0 -102 -28 -102 -71 0 -47 31 -69 96 -69
l57 0 -6 -43 c-10 -73 -55 -199 -94 -267 -49 -83 -190 -224 -273 -273 -68 -39
-194 -84 -267 -94 l-43 -6 0 57 c0 65 -22 96 -69 96 -43 0 -71 -40 -71 -102
l0 -50 -47 7 c-76 11 -190 52 -262 95 -196 116 -328 313 -366 543 l-6 37 54 0
c68 0 100 22 100 69 0 47 -23 64 -93 69 -33 2 -60 6 -60 8 0 1 7 35 15 75 60
286 292 521 577 583 35 8 68 14 74 15 7 1 13 -23 16 -59z m3473 26 c239 -81
407 -249 491 -491 26 -72 28 -93 29 -220 0 -120 -3 -151 -23 -215 -26 -80 -77
-190 -90 -190 -4 0 -13 15 -20 34 -21 56 -87 122 -160 158 -62 31 -74 33 -189
36 -68 2 -123 7 -123 10 0 4 15 17 34 29 39 25 87 95 118 172 20 49 23 74 23
196 0 128 -2 144 -24 189 -33 66 -91 122 -160 155 -73 34 -190 36 -263 3 -112
-50 -185 -160 -195 -295 -12 -165 42 -326 138 -410 l51 -45 -128 -4 c-105 -3
-138 -8 -176 -25 -60 -27 -133 -95 -168 -156 -30 -53 -33 -52 -68 19 -111 220
-99 498 30 719 49 83 170 206 251 254 141 83 255 112 422 107 98 -3 135 -8
200 -30z m-1519 9 c193 -26 398 -77 546 -137 l57 -24 -44 -63 c-24 -35 -46
-68 -48 -74 -2 -7 -44 2 -118 26 -244 80 -437 110 -694 110 -251 -1 -450 -32
-680 -109 -57 -19 -108 -34 -112 -34 -5 0 -19 18 -32 40 -12 22 -34 54 -48 70
-14 17 -24 32 -22 34 2 2 47 20 100 39 155 58 357 105 564 130 88 11 424 6
531 -8z m1390 -280 c14 -11 27 -24 28 -30 0 -6 -45 -13 -109 -17 -60 -4 -125
-9 -143 -12 -33 -5 -33 -4 -19 17 8 12 32 32 53 45 50 29 149 27 190 -3z
m-1481 -25 c145 -16 302 -49 420 -88 126 -42 120 -32 91 -160 -20 -93 -21
-250 0 -350 68 -330 311 -589 639 -683 43 -13 116 -22 190 -26 114 -5 160 0
307 33 24 5 29 2 43 -32 28 -66 82 -276 102 -390 25 -152 25 -476 0 -628 -20
-114 -74 -324 -102 -390 -13 -31 -20 -37 -38 -33 -175 41 -316 48 -445 21
-349 -71 -624 -346 -696 -696 -21 -99 -20 -245 0 -345 26 -124 26 -122 -31
-144 -75 -29 -257 -76 -370 -96 -152 -26 -500 -24 -655 5 -117 21 -301 71
-366 98 -32 13 -35 18 -30 42 57 250 45 437 -39 626 -96 216 -296 401 -517
476 -181 63 -338 66 -565 13 -26 -6 -40 21 -83 172 -60 205 -74 318 -74 565 0
171 4 248 17 320 23 124 62 275 91 353 27 71 20 70 156 42 110 -23 291 -16
400 15 294 83 536 324 620 620 41 143 39 306 -6 502 -5 24 -2 29 32 43 105 44
324 95 484 114 107 12 319 13 425 1z m1571 -212 c-10 -105 -32 -163 -80 -213
-114 -119 -268 -26 -292 176 -6 53 -5 55 22 68 17 8 90 17 172 21 78 4 146 10
149 14 3 3 13 6 21 6 12 0 13 -12 8 -72z m217 -541 c64 -38 97 -90 104 -165
l6 -59 -49 -37 c-48 -37 -48 -37 -57 -14 -23 62 -80 78 -116 32 -15 -19 -21
-41 -21 -79 l0 -51 -53 -17 c-137 -43 -309 -43 -441 1 l-51 17 -5 63 c-5 69
-23 92 -67 92 -28 0 -63 -33 -63 -60 0 -27 -6 -26 -58 17 l-44 36 4 62 c6 90
52 147 146 181 29 11 111 13 377 11 l340 -2 48 -28z m-4123 -372 c7 -9 37 -30
67 -48 29 -17 53 -38 53 -45 0 -7 -7 -29 -15 -49 -9 -20 -29 -82 -45 -137
-126 -438 -113 -891 38 -1329 24 -70 25 -79 11 -87 -9 -5 -42 -27 -75 -49
l-59 -39 -23 56 c-63 155 -120 392 -143 591 -7 64 -9 184 -6 315 5 223 21 346
71 538 29 109 96 298 107 298 3 0 12 -7 19 -15z m4323 -85 c42 -115 89 -291
114 -435 14 -79 17 -157 17 -365 0 -289 -7 -356 -65 -584 -25 -99 -92 -301
-105 -315 -2 -2 -17 8 -34 22 -16 14 -48 36 -70 48 -22 13 -40 27 -40 33 0 6
16 57 34 113 77 227 109 428 109 683 0 255 -32 453 -109 685 -19 57 -34 107
-34 112 0 5 24 23 53 40 30 18 60 39 67 48 7 8 16 15 19 15 4 0 24 -45 44
-100z m-3603 -1657 c36 -8 108 -35 160 -61 82 -39 108 -59 191 -141 82 -83
102 -109 141 -191 61 -125 81 -209 80 -340 -1 -338 -212 -618 -542 -722 -64
-20 -95 -23 -215 -23 -127 1 -148 3 -220 29 -241 83 -410 253 -491 491 -34
103 -43 265 -21 372 33 153 97 272 207 383 188 190 447 264 710 203z m3189 -4
c313 -80 540 -358 558 -685 9 -169 -28 -312 -117 -448 -215 -329 -635 -440
-980 -260 -250 130 -404 384 -403 664 0 132 20 218 79 339 39 80 60 109 138
186 202 204 450 273 725 204z m-2462 -1183 c224 -76 427 -108 678 -109 257 0
448 30 694 110 74 24 116 33 118 26 2 -6 24 -39 48 -74 l44 -63 -57 -24 c-155
-63 -391 -120 -591 -143 -136 -15 -494 -7 -621 15 -137 24 -318 71 -429 113
-53 19 -98 37 -100 39 -2 2 8 17 22 34 14 16 36 48 48 70 13 22 27 40 33 40 6
0 57 -16 113 -34z"/>
<path d="M934 4652 c-27 -18 -34 -56 -34 -194 l0 -144 -29 -17 c-68 -40 -98
-142 -63 -219 28 -65 80 -101 151 -106 66 -5 99 9 145 57 30 31 30 31 138 31
95 0 110 2 128 20 25 25 26 72 2 93 -15 14 -40 17 -120 17 l-101 0 -17 35
c-16 35 -67 85 -85 85 -5 0 -9 66 -9 153 0 174 -7 197 -63 197 -18 0 -37 -4
-43 -8z m78 -487 c10 -22 9 -29 -10 -47 -18 -19 -25 -20 -47 -10 -16 8 -25 20
-25 35 0 50 62 66 82 22z"/>
<path d="M2394 3659 c-11 -6 -37 -39 -58 -74 -20 -35 -42 -67 -49 -72 -7 -6
-56 -28 -109 -50 l-97 -41 -78 19 c-43 10 -84 18 -92 19 -17 0 -238 -216 -246
-240 -3 -10 3 -54 14 -99 l19 -82 -41 -97 c-22 -53 -45 -103 -50 -109 -5 -7
-34 -27 -64 -44 -95 -54 -93 -50 -93 -229 0 -179 -2 -175 93 -229 30 -17 59
-37 64 -44 6 -6 28 -56 50 -110 l40 -98 -18 -77 c-10 -42 -18 -83 -19 -91 0
-17 216 -238 240 -246 10 -3 53 3 97 13 l80 19 99 -39 c55 -22 104 -44 111
-50 7 -5 29 -38 49 -73 20 -35 48 -68 61 -74 31 -14 295 -14 326 0 13 6 41 39
61 74 20 35 42 67 49 72 7 6 56 28 109 50 l97 41 82 -19 c45 -11 89 -17 99
-14 24 8 240 229 240 246 -1 8 -9 49 -19 92 l-19 78 41 97 c22 53 44 102 50
109 5 7 37 29 72 49 35 20 68 48 74 61 6 14 11 84 11 163 0 79 -5 149 -11 163
-6 13 -39 41 -74 61 -35 20 -67 42 -72 49 -6 7 -28 56 -50 109 l-41 97 19 78
c10 43 18 84 19 92 0 17 -216 238 -240 246 -10 3 -54 -3 -99 -14 l-82 -19 -97
41 c-53 22 -102 44 -109 50 -7 5 -29 37 -49 72 -20 35 -48 68 -61 74 -30 14
-300 13 -329 0z m295 -182 c17 -29 38 -60 48 -69 10 -9 80 -41 155 -72 l138
-56 76 17 75 16 66 -66 66 -66 -16 -76 -17 -76 58 -142 58 -142 67 -45 67 -45
0 -95 0 -95 -67 -45 -67 -45 -58 -142 -58 -142 17 -76 16 -76 -66 -66 -66 -66
-76 16 -75 17 -143 -58 -142 -58 -45 -67 -45 -67 -95 0 -95 0 -45 67 -45 67
-142 58 -142 58 -76 -17 -76 -16 -66 66 -66 66 16 76 17 76 -58 142 -58 142
-67 45 -67 45 0 95 0 95 67 45 67 45 58 142 58 142 -17 76 -16 76 66 66 66 66
76 -16 76 -17 142 58 142 58 45 67 45 67 97 0 97 0 30 -53z"/>
<path d="M2424 3216 c-246 -56 -432 -228 -506 -466 -18 -60 -23 -98 -23 -190
0 -194 58 -335 194 -471 85 -85 169 -136 281 -171 111 -34 283 -32 396 5 200
66 365 231 431 431 37 113 39 285 5 396 -35 112 -86 196 -171 281 -128 127
-265 187 -446 195 -64 2 -122 -1 -161 -10z m287 -146 c127 -39 235 -121 299
-227 57 -94 79 -174 79 -283 0 -240 -147 -439 -378 -510 -79 -25 -215 -27
-292 -4 -341 100 -495 487 -314 789 68 112 162 187 294 232 88 30 222 31 312
3z"/>
<path d="M2474 2906 c-277 -70 -364 -420 -151 -611 66 -60 142 -88 237 -88
105 0 178 29 251 102 73 73 102 146 102 251 0 105 -29 178 -102 251 -88 88
-220 125 -337 95z m205 -159 c117 -78 135 -243 36 -342 -133 -134 -361 -49
-373 139 -6 97 36 173 121 216 61 31 158 25 216 -13z"/>
<path d="M1070 1450 c-17 -17 -20 -33 -20 -120 l0 -100 -120 0 c-115 0 -122
-1 -145 -25 -23 -23 -25 -31 -25 -130 l0 -105 -119 0 c-172 0 -165 9 -169
-216 -2 -97 -1 -192 3 -210 12 -67 -12 -64 500 -64 l464 0 15 22 c14 20 16 81
16 471 l0 448 -25 24 c-24 25 -27 25 -190 25 -152 0 -167 -2 -185 -20z m260
-480 l0 -360 -75 0 -75 0 0 360 0 360 75 0 75 0 0 -360z m-280 -120 l0 -240
-75 0 -75 0 0 240 0 240 75 0 75 0 0 -240z m-290 -130 l0 -110 -75 0 -75 0 0
110 0 110 75 0 75 0 0 -110z"/>
<path d="M4123 1589 c-29 -11 -43 -39 -43 -89 0 -30 -5 -42 -17 -46 -52 -15
-128 -62 -158 -97 -97 -113 -82 -301 32 -380 47 -33 91 -48 217 -77 118 -27
154 -53 163 -116 12 -90 -63 -164 -166 -164 -95 0 -157 46 -172 127 -14 78
-61 103 -114 61 -25 -20 -27 -25 -22 -73 3 -29 14 -70 25 -92 29 -55 101 -118
161 -140 l51 -18 0 -47 c0 -57 25 -88 68 -88 40 0 64 31 70 88 4 47 5 48 51
65 63 22 126 79 158 141 39 76 37 174 -4 247 -41 74 -103 110 -245 144 -168
39 -198 61 -198 147 0 119 155 186 268 117 38 -23 72 -74 72 -109 0 -41 27
-70 63 -70 38 0 50 7 66 38 15 29 0 110 -30 158 -30 49 -105 111 -152 127 -37
12 -42 17 -45 48 -6 77 -47 117 -99 98z"/>
</g>
</svg>
